{
    "asset" : {
        "generator" : "Khronos glTF Blender I/O v0.9.36",
        "version" : "2.0"
    },
    "scene" : 0,
    "scenes" : [
        {
            "name" : "Scene",
            "nodes" : [
                0,
                1,
                2
            ]
        }
    ],
    "nodes" : [
        {
            "name" : "Light",
            "rotation" : [
                0.16907575726509094,
                0.7558803558349609,
                -0.27217137813568115,
                0.570947527885437
            ],
            "translation" : [
                4.076245307922363,
                5.903861999511719,
                -1.0054539442062378
            ]
        },
        {
            "name" : "Camera",
            "rotation" : [
                0.483536034822464,
                0.33687159419059753,
                -0.20870360732078552,
                0.7804827094078064
            ],
            "translation" : [
                7.358891487121582,
                4.958309173583984,
                6.925790786743164
            ]
        },
        {
            "mesh" : 0,
            "name" : "mountain.008",
            "rotation" : [
                0,
                -0.9659258127212524,
                0,
                0.25881919264793396
            ],
            "scale" : [
                1.1507372856140137,
                0.13307595252990723,
                1.1507372856140137
            ]
        }
    ],
    "materials" : [
        {
            "doubleSided" : true,
            "name" : "rock",
            "pbrMetallicRoughness" : {}
        }
    ],
    "meshes" : [
        {
            "name" : "Cylinder.116",
            "primitives" : [
                {
                    "attributes" : {
                        "POSITION" : 0,
                        "NORMAL" : 1,
                        "TEXCOORD_0" : 2
                    },
                    "indices" : 3,
                    "material" : 0
                }
            ]
        }
    ],
    "accessors" : [
        {
            "bufferView" : 0,
            "componentType" : 5126,
            "count" : 126,
            "max" : [
                0.8751991987228394,
                12.863273620605469,
                1.0018659830093384
            ],
            "min" : [
                -0.8568516969680786,
                0.05095481872558594,
                -0.9981340765953064
            ],
            "type" : "VEC3"
        },
        {
            "bufferView" : 1,
            "componentType" : 5126,
            "count" : 126,
            "type" : "VEC3"
        },
        {
            "bufferView" : 2,
            "componentType" : 5126,
            "count" : 126,
            "type" : "VEC2"
        },
        {
            "bufferView" : 3,
            "componentType" : 5123,
            "count" : 168,
            "type" : "SCALAR"
        }
    ],
    "bufferViews" : [
        {
            "buffer" : 0,
            "byteLength" : 1512,
            "byteOffset" : 0
        },
        {
            "buffer" : 0,
            "byteLength" : 1512,
            "byteOffset" : 1512
        },
        {
            "buffer" : 0,
            "byteLength" : 1008,
            "byteOffset" : 3024
        },
        {
            "buffer" : 0,
            "byteLength" : 336,
            "byteOffset" : 4032
        }
    ],
    "buffers" : [
        {
            "byteLength" : 4368,
            "uri" : "data:application/octet-stream;base64,"
        }
    ]
}
