<svg width="67" height="76" viewBox="0 0 67 76" fill="none" xmlns="http://www.w3.org/2000/svg">
<path d="M25.9934 56.3411C26.081 51.7 26.8835 46.932 28.5145 41H39.9498C37.8718 46.0473 36.7129 50.485 36.453 54.9124C36.1451 60.156 37.1075 65.2291 39.0734 71.112C39.5644 72.5812 38.4851 74 37.1195 74H30.0689C29.1554 74 28.3819 73.3878 28.1739 72.5456C26.6354 66.3159 25.8988 61.3515 25.9934 56.3411Z" fill="#16141A" stroke="white" stroke-width="4"/>
<path d="M67 40.984C67 50.9163 59.165 39.298 49.5 39.298C39.835 39.298 32 50.9163 32 40.984C32 31.0517 39.835 23 49.5 23C59.165 23 67 31.0517 67 40.984Z" fill="white"/>
<path d="M60.1696 12.7131C67.1908 19.7343 53.4638 17.0352 46.662 23.837C39.8601 30.6388 42.5593 44.3659 35.538 37.3447C28.5168 30.3234 28.3389 19.1176 35.1407 12.3158C41.9426 5.51399 53.1484 5.69186 60.1696 12.7131Z" fill="white"/>
<path d="M5.43759 12.7131C-1.58365 19.7343 12.1434 17.0352 18.9452 23.837C25.747 30.6388 23.0479 44.3659 30.0692 37.3447C37.0904 30.3234 37.2683 19.1176 30.4664 12.3158C23.6646 5.51399 12.4588 5.69186 5.43759 12.7131Z" fill="white"/>
<path d="M35 40.984C35 50.9163 27.165 39.298 17.5 39.298C7.83502 39.298 0 50.9163 0 40.984C0 31.0517 7.83502 23 17.5 23C27.165 23 35 31.0517 35 40.984Z" fill="white"/>
</svg>
