<svg width="15" height="16" viewBox="0 0 15 16" fill="none" xmlns="http://www.w3.org/2000/svg">
<path fill-rule="evenodd" clip-rule="evenodd" d="M7.79587 0.183361C7.37242 -0.0611201 6.85071 -0.0611203 6.42725 0.18336L0.684311 3.49905C0.260858 3.74353 0 4.19535 0 4.68431V11.3157C0 11.8047 0.260857 12.2565 0.68431 12.501L6.42725 15.8166C6.85071 16.0611 7.37242 16.0611 7.79587 15.8166L13.5388 12.501C13.9623 12.2565 14.2231 11.8047 14.2231 11.3157V4.68431C14.2231 4.19535 13.9623 3.74353 13.5388 3.49905L7.79587 0.183361ZM10.7634 5.89158L7.11156 3.78316L3.45968 5.89158V10.1084L7.11156 12.2168L10.7634 10.1084V5.89158Z" fill="#15131A"/>
</svg>
