<svg width="78" height="78" viewBox="0 0 78 78" fill="none" xmlns="http://www.w3.org/2000/svg">
<path d="M35.5359 6C37.0755 3.33334 40.9245 3.33333 42.4641 6L69.3109 52.5C70.8505 55.1667 68.926 58.5 65.8468 58.5H12.1532C9.07401 58.5 7.14951 55.1667 8.68911 52.5L35.5359 6Z" fill="white"/>
<path d="M42.4571 9.98751L55.2991 32.2305C56.6376 34.549 55.3651 37.5024 52.7607 38.1219L51.4366 38.4369C50.193 38.7328 48.8875 38.6237 47.7102 38.1256L41.9266 35.6787C40.0851 34.8996 38.0186 34.8384 36.1342 35.507L31.0705 37.3038C29.1455 37.9869 27.015 37.1098 26.1289 35.2695L24.6694 32.2383C24.0948 31.0451 24.1481 29.6449 24.8116 28.4988L35.5313 9.98334C37.073 7.32038 40.9186 7.32269 42.4571 9.98751Z" fill="#16141A" stroke="white" stroke-width="4"/>
</svg>
