<svg width="35" height="44" viewBox="0 0 35 44" fill="none" xmlns="http://www.w3.org/2000/svg">
<path fill-rule="evenodd" clip-rule="evenodd" d="M4.52624 39.0653C4.20627 39.8966 4.90051 40.8975 5.77309 40.7185C10.4933 39.7501 13.2335 38.9856 15.8433 35.0091C17.6615 32.2388 16.8896 28.519 14.1192 26.7009C11.3488 24.8827 7.62909 25.6546 5.81091 28.4249C4.39289 30.5856 4.62473 32.2444 4.87053 34.0031C5.07917 35.4959 5.29786 37.0606 4.52624 39.0653Z" fill="#151319"/>
<path d="M19.6037 25.3323C19.0411 26.3525 17.729 26.6777 16.755 26.0385L13.678 24.0191C12.7041 23.3798 12.4804 22.0467 13.1924 21.1246L26.6783 3.6605C27.317 2.83334 28.4849 2.6374 29.3586 3.21081L29.606 3.37316C30.4797 3.94657 30.7646 5.09599 30.2599 6.01111L19.6037 25.3323Z" fill="#151319"/>
</svg>
