<svg width="50" height="54" viewBox="0 0 50 54" fill="none" xmlns="http://www.w3.org/2000/svg">
<path fill-rule="evenodd" clip-rule="evenodd" d="M9.89983 26.7817C9.89983 35.0648 16.6146 41.7795 24.8976 41.7795C33.1807 41.7795 39.8954 35.0648 39.8954 26.7817C39.8954 18.4987 33.1807 11.7839 24.8976 11.7839C16.6146 11.7839 9.89983 18.4987 9.89983 26.7817ZM15.8989 26.7817C15.8989 31.7516 19.9278 35.7804 24.8976 35.7804C29.8674 35.7804 33.8963 31.7516 33.8963 26.7817C33.8963 21.8119 29.8674 17.7831 24.8976 17.7831C19.9278 17.7831 15.8989 21.8119 15.8989 26.7817Z" fill="white"/>
<circle cx="25.4057" cy="3.2794" r="3.2794" transform="rotate(90 25.4057 3.2794)" fill="white"/>
<circle cx="25.4057" cy="50.284" r="3.2794" transform="rotate(90 25.4057 50.284)" fill="white"/>
<circle cx="45.0518" cy="14.3515" r="3.2794" transform="rotate(150 45.0518 14.3515)" fill="white"/>
<circle cx="4.47975" cy="37.7759" r="3.2794" transform="rotate(150 4.47975 37.7759)" fill="white"/>
<circle cx="45.5203" cy="37.3074" r="3.2794" transform="rotate(-150 45.5203 37.3074)" fill="white"/>
<circle cx="4.94824" cy="13.8831" r="3.2794" transform="rotate(-150 4.94824 13.8831)" fill="white"/>
</svg>
