<svg width="50" height="54" viewBox="0 0 50 54" fill="none" xmlns="http://www.w3.org/2000/svg">
<mask id="path-1-inside-1_11:277" fill="white">
<path fill-rule="evenodd" clip-rule="evenodd" d="M9.89983 26.7817C9.89983 35.0648 16.6146 41.7795 24.8976 41.7795C33.1807 41.7795 39.8954 35.0648 39.8954 26.7817C39.8954 18.4987 33.1807 11.7839 24.8976 11.7839C16.6146 11.7839 9.89983 18.4987 9.89983 26.7817ZM15.8989 26.7817C15.8989 31.7516 19.9278 35.7804 24.8976 35.7804C29.8674 35.7804 33.8963 31.7516 33.8963 26.7817C33.8963 21.8119 29.8674 17.7831 24.8976 17.7831C19.9278 17.7831 15.8989 21.8119 15.8989 26.7817Z"/>
</mask>
<path d="M24.8976 40.7795C17.1668 40.7795 10.8998 34.5125 10.8998 26.7817L8.89983 26.7817C8.89983 35.617 16.0623 42.7795 24.8976 42.7795L24.8976 40.7795ZM38.8954 26.7817C38.8954 34.5125 32.6284 40.7795 24.8976 40.7795L24.8976 42.7795C33.7329 42.7795 40.8954 35.617 40.8954 26.7817L38.8954 26.7817ZM24.8976 12.7839C32.6284 12.7839 38.8954 19.051 38.8954 26.7817L40.8954 26.7817C40.8954 17.9464 33.7329 10.7839 24.8976 10.7839L24.8976 12.7839ZM10.8998 26.7817C10.8998 19.051 17.1668 12.7839 24.8976 12.7839L24.8976 10.7839C16.0623 10.7839 8.89983 17.9464 8.89983 26.7817L10.8998 26.7817ZM24.8976 34.7804C20.4801 34.7804 16.8989 31.1993 16.8989 26.7817L14.8989 26.7817C14.8989 32.3038 19.3755 36.7804 24.8976 36.7804L24.8976 34.7804ZM32.8963 26.7817C32.8963 31.1993 29.3152 34.7804 24.8976 34.7804L24.8976 36.7804C30.4197 36.7804 34.8963 32.3038 34.8963 26.7817L32.8963 26.7817ZM24.8976 18.7831C29.3152 18.7831 32.8963 22.3642 32.8963 26.7817L34.8963 26.7817C34.8963 21.2596 30.4197 16.7831 24.8976 16.7831L24.8976 18.7831ZM16.8989 26.7817C16.8989 22.3642 20.4801 18.7831 24.8976 18.7831L24.8976 16.7831C19.3755 16.7831 14.8989 21.2596 14.8989 26.7817L16.8989 26.7817Z" fill="white" mask="url(#path-1-inside-1_11:277)"/>
<circle cx="25.4057" cy="3.2794" r="2.7794" transform="rotate(90 25.4057 3.2794)" stroke="white"/>
<circle cx="25.4057" cy="50.284" r="2.7794" transform="rotate(90 25.4057 50.284)" stroke="white"/>
<circle cx="45.0518" cy="14.3517" r="2.7794" transform="rotate(150 45.0518 14.3517)" stroke="white"/>
<circle cx="4.47975" cy="37.7757" r="2.7794" transform="rotate(150 4.47975 37.7757)" stroke="white"/>
<circle cx="45.5203" cy="37.3074" r="2.7794" transform="rotate(-150 45.5203 37.3074)" stroke="white"/>
<circle cx="4.94824" cy="13.8831" r="2.7794" transform="rotate(-150 4.94824 13.8831)" stroke="white"/>
</svg>
