<svg width="42" height="47" viewBox="0 0 42 47" fill="none" xmlns="http://www.w3.org/2000/svg">
<path fill-rule="evenodd" clip-rule="evenodd" d="M22.7846 0.535899C21.547 -0.178633 20.0222 -0.178633 18.7846 0.535898L2 10.2265C0.762395 10.941 0 12.2615 0 13.6906V33.0718C0 34.5009 0.762395 35.8214 2 36.5359L18.7846 46.2265C20.0222 46.941 21.547 46.941 22.7846 46.2265L39.5692 36.5359C40.8068 35.8214 41.5692 34.5009 41.5692 33.0718V13.6906C41.5692 12.2615 40.8068 10.941 39.5692 10.2265L22.7846 0.535899ZM31.4578 17.219L20.7846 11.0569L10.1114 17.219V29.5434L20.7846 35.7055L31.4578 29.5434V17.219Z" fill="white"/>
</svg>
