<svg width="42" height="47" viewBox="0 0 42 47" fill="none" xmlns="http://www.w3.org/2000/svg">
<mask id="path-1-inside-1_3:11" fill="white">
<path fill-rule="evenodd" clip-rule="evenodd" d="M22.7846 0.535899C21.547 -0.178633 20.0222 -0.178633 18.7846 0.535898L2 10.2265C0.762395 10.941 0 12.2615 0 13.6906V33.0718C0 34.5009 0.762395 35.8214 2 36.5359L18.7846 46.2265C20.0222 46.941 21.547 46.941 22.7846 46.2265L39.5692 36.5359C40.8068 35.8214 41.5692 34.5009 41.5692 33.0718V13.6906C41.5692 12.2615 40.8068 10.941 39.5692 10.2265L22.7846 0.535899ZM31.4578 17.219L20.7846 11.0569L10.1114 17.219V29.5434L20.7846 35.7055L31.4578 29.5434V17.219Z"/>
</mask>
<path d="M18.7846 0.535898L19.2846 1.40192V1.40192L18.7846 0.535898ZM22.7846 0.535899L22.2846 1.40192L22.7846 0.535899ZM2 10.2265L2.5 11.0925H2.5L2 10.2265ZM2 36.5359L1.5 37.4019H1.5L2 36.5359ZM18.7846 46.2265L18.2846 47.0925L18.7846 46.2265ZM22.7846 46.2265L23.2846 47.0925L22.7846 46.2265ZM39.5692 36.5359L40.0692 37.4019L39.5692 36.5359ZM39.5692 10.2265L39.0692 11.0925V11.0925L39.5692 10.2265ZM20.7846 11.0569L21.2846 10.1909L20.7846 9.90218L20.2846 10.1909L20.7846 11.0569ZM31.4578 17.219H32.4578V16.6417L31.9578 16.353L31.4578 17.219ZM10.1114 17.219L9.61143 16.353L9.11143 16.6417V17.219H10.1114ZM10.1114 29.5434H9.11143V30.1207L9.61143 30.4094L10.1114 29.5434ZM20.7846 35.7055L20.2846 36.5716L20.7846 36.8602L21.2846 36.5716L20.7846 35.7055ZM31.4578 29.5434L31.9578 30.4094L32.4578 30.1207V29.5434H31.4578ZM19.2846 1.40192C20.2128 0.866025 21.3564 0.866026 22.2846 1.40192L23.2846 -0.330126C21.7376 -1.22329 19.8316 -1.22329 18.2846 -0.330127L19.2846 1.40192ZM2.5 11.0925L19.2846 1.40192L18.2846 -0.330127L1.5 9.36047L2.5 11.0925ZM1 13.6906C1 12.6188 1.5718 11.6284 2.5 11.0925L1.5 9.36047C-0.047006 10.2536 -1 11.9043 -1 13.6906H1ZM1 33.0718V13.6906H-1V33.0718H1ZM2.5 35.6699C1.5718 35.134 1 34.1436 1 33.0718H-1C-1 34.8581 -0.0470062 36.5088 1.5 37.4019L2.5 35.6699ZM19.2846 45.3605L2.5 35.6699L1.5 37.4019L18.2846 47.0925L19.2846 45.3605ZM22.2846 45.3605C21.3564 45.8964 20.2128 45.8964 19.2846 45.3605L18.2846 47.0925C19.8316 47.9857 21.7376 47.9857 23.2846 47.0925L22.2846 45.3605ZM39.0692 35.6699L22.2846 45.3605L23.2846 47.0925L40.0692 37.4019L39.0692 35.6699ZM40.5692 33.0718C40.5692 34.1436 39.9974 35.134 39.0692 35.6699L40.0692 37.4019C41.6162 36.5088 42.5692 34.8581 42.5692 33.0718H40.5692ZM40.5692 13.6906V33.0718H42.5692V13.6906H40.5692ZM39.0692 11.0925C39.9974 11.6284 40.5692 12.6188 40.5692 13.6906H42.5692C42.5692 11.9043 41.6162 10.2536 40.0692 9.36047L39.0692 11.0925ZM22.2846 1.40192L39.0692 11.0925L40.0692 9.36047L23.2846 -0.330126L22.2846 1.40192ZM20.2846 11.9229L30.9578 18.0851L31.9578 16.353L21.2846 10.1909L20.2846 11.9229ZM10.6114 18.0851L21.2846 11.9229L20.2846 10.1909L9.61143 16.353L10.6114 18.0851ZM11.1114 29.5434V17.219H9.11143V29.5434H11.1114ZM21.2846 34.8395L10.6114 28.6773L9.61143 30.4094L20.2846 36.5716L21.2846 34.8395ZM30.9578 28.6773L20.2846 34.8395L21.2846 36.5716L31.9578 30.4094L30.9578 28.6773ZM30.4578 17.219V29.5434H32.4578V17.219H30.4578Z" fill="white" mask="url(#path-1-inside-1_3:11)"/>
</svg>
