<svg width="44" height="60" viewBox="-4 0 46 57" fill="none" xmlns="http://www.w3.org/2000/svg">
<mask id="path-1-inside-1_109:63" fill="white">
<path fill-rule="evenodd" clip-rule="evenodd" d="M0 37.0432C0 47.6308 8.46752 56.2407 19 56.4703C19 56.4703 19 56.4703 19 56.4703V56.4703C19 56.4703 19 56.4703 19.0001 56.4703C29.5325 56.2407 38 47.6308 38 37.0433C38 36.8997 37.9985 36.7566 37.9954 36.6138C37.9954 36.6125 37.9964 36.6114 37.9977 36.6114V36.6114C37.999 36.6114 38.0001 36.6104 38.0001 36.6091C37.9989 25.4194 29.5508 10.9117 22.4909 2.16441C20.6698 -0.0919969 17.3303 -0.0919944 15.5091 2.16442C8.44923 10.9117 0.00118125 25.4194 3.06351e-05 36.6091C3.05039e-05 36.6104 0.0010652 36.6114 0.00234154 36.6114V36.6114C0.00363761 36.6114 0.00468026 36.6124 0.00465215 36.6137C0.00155447 36.7565 0 36.8997 0 37.0432Z"/>
</mask>
<path fill-rule="evenodd" clip-rule="evenodd" d="M0 37.0432C0 47.6308 8.46752 56.2407 19 56.4703C19 56.4703 19 56.4703 19 56.4703V56.4703C19 56.4703 19 56.4703 19.0001 56.4703C29.5325 56.2407 38 47.6308 38 37.0433C38 36.8997 37.9985 36.7566 37.9954 36.6138C37.9954 36.6125 37.9964 36.6114 37.9977 36.6114V36.6114C37.999 36.6114 38.0001 36.6104 38.0001 36.6091C37.9989 25.4194 29.5508 10.9117 22.4909 2.16441C20.6698 -0.0919969 17.3303 -0.0919944 15.5091 2.16442C8.44923 10.9117 0.00118125 25.4194 3.06351e-05 36.6091C3.05039e-05 36.6104 0.0010652 36.6114 0.00234154 36.6114V36.6114C0.00363761 36.6114 0.00468026 36.6124 0.00465215 36.6137C0.00155447 36.7565 0 36.8997 0 37.0432Z" fill="#16141A"/>
<path d="M0.00465215 36.6137L3.42936 36.688L0.00465215 36.6137ZM3.06351e-05 36.6091L-3.42549 36.6087L3.06351e-05 36.6091ZM37.9954 36.6138L41.4201 36.5395L41.4201 36.5395L37.9954 36.6138ZM19.0001 56.4703L18.9254 53.0456L19.0001 56.4703ZM38.0001 36.6091L34.5746 36.6095L38.0001 36.6091ZM19 56.4703L19.0747 53.0456L19 56.4703ZM19.0747 53.0456C10.4004 52.8565 3.42552 45.7639 3.42552 37.0432H-3.42552C-3.42552 49.4976 6.53463 59.6249 18.9253 59.895L19.0747 53.0456ZM19.0747 59.895C31.4654 59.6249 41.4255 49.4977 41.4255 37.0433H34.5745C34.5745 45.764 27.5996 52.8565 18.9254 53.0456L19.0747 59.895ZM41.4255 37.0433C41.4255 36.875 41.4237 36.7071 41.4201 36.5395L34.5707 36.6881C34.5732 36.8061 34.5745 36.9245 34.5745 37.0433H41.4255ZM41.4256 36.6087C41.4249 30.2534 39.0583 23.2767 35.9693 16.9651C32.8502 10.5916 28.8291 4.56335 25.1565 0.0129909L19.8253 4.31583C23.2126 8.51276 26.9456 14.112 29.8157 19.9767C32.7161 25.9031 34.5741 31.7751 34.5746 36.6095L41.4256 36.6087ZM3.42555 36.6094C3.42604 31.7751 5.28398 25.9031 8.18437 19.9767C11.0545 14.1121 14.7874 8.51277 18.1748 4.31584L12.8435 0.0129976C9.17094 4.56336 5.14991 10.5916 2.03074 16.9651C-1.05817 23.2767 -3.42483 30.2534 -3.42549 36.6087L3.42555 36.6094ZM3.42552 37.0432C3.42552 36.9244 3.4268 36.806 3.42936 36.688L-3.42006 36.5394C-3.42369 36.707 -3.42552 36.8749 -3.42552 37.0432H3.42552ZM0.00234154 40.0369C-1.9173 40.0369 -3.4617 38.4586 -3.42006 36.5394L3.42936 36.688C3.47106 34.7662 1.92458 33.1859 0.00234154 33.1859V40.0369ZM-3.42549 36.6087C-3.42569 38.5503 -1.84223 40.0369 0.00234154 40.0369V33.1859C1.84436 33.1859 3.42575 34.6704 3.42555 36.6094L-3.42549 36.6087ZM25.1565 0.0129909C21.9643 -3.94221 16.0358 -3.94221 12.8435 0.0129976L18.1748 4.31584C18.6248 3.75822 19.3752 3.75822 19.8253 4.31583L25.1565 0.0129909ZM41.4201 36.5395C41.4617 38.4588 39.9173 40.0369 37.9977 40.0369V33.1859C36.0755 33.1859 34.529 34.7663 34.5707 36.6881L41.4201 36.5395ZM15.5745 56.4703C15.5745 58.4166 17.1793 59.9364 19.0747 59.895L18.9254 53.0456C20.8207 53.0043 22.4255 54.5241 22.4255 56.4703H15.5745ZM37.9977 40.0369C39.8423 40.0369 41.4258 38.5504 41.4256 36.6087L34.5746 36.6095C34.5744 34.6704 36.1557 33.1859 37.9977 33.1859V40.0369ZM18.9253 59.895C17.0868 59.8549 15.5745 58.3568 15.5745 56.4703H22.4255C22.4255 54.5838 20.9132 53.0857 19.0747 53.0456L18.9253 59.895Z" fill="white" mask="url(#path-1-inside-1_109:63)"/>
<path fill-rule="evenodd" clip-rule="evenodd" d="M10.3637 36.0762C10.3637 40.8413 14.2124 44.7164 18.9998 44.8198C23.7872 44.7164 27.636 40.8414 27.636 36.0762C27.636 36.0116 27.6353 35.9472 27.6338 35.8829C27.6338 35.8823 27.6343 35.8819 27.6349 35.8819V35.8819C27.6355 35.8819 27.6359 35.8814 27.6359 35.8808C27.6353 29.9729 22.3509 22.0098 18.9998 18.5879C18.9998 18.5879 18.9998 18.5879 18.9998 18.5879V18.5879C18.9998 18.5879 18.9998 18.5879 18.9998 18.5879C18.9998 18.5879 18.9998 18.5879 18.9998 18.5879C18.9998 18.5879 18.9998 18.5879 18.9998 18.5879V18.5879C18.9998 18.5879 18.9998 18.5879 18.9998 18.5879V18.5879C18.9998 18.5879 18.9998 18.5879 18.9998 18.5879C15.6486 22.0098 10.3643 29.9729 10.3636 35.8808C10.3636 35.8814 10.3641 35.8819 10.3647 35.8819V35.8819C10.3653 35.8819 10.3658 35.8823 10.3658 35.8829C10.3644 35.9472 10.3637 36.0116 10.3637 36.0762Z" fill="white"/>
</svg>
